:SAMPLES-PER-SECOND 30
:FRAME-RANGE 1-663
:FULLY-SPECIFIED
:DEGREES
394
root  30.9614 40.1239 7.95604 -179.155 -57.0117 -179.249
RightUpLeg  -6.14565 -10.4539 -10.5356
RightLeg  -1.88477 -17.2746 2.81311
RightFoot  6.07021 -1.97362 13.1105
RightToes  2.91037e-010 0 -3.6325e-017
Spine  7.13677 4.41304 4.69058
Spine1  0.953245 7.23914 -11.954
HEad  7.22585 -0.257359 -0.125314
LeftShoulder1  2.06288 -3.74315 -22.1438
LeftArm  20.5277 -52.9843 -41.6439
LeftForeArm  -78.071 -27.6895 -8.16573
LeftHand  8.43785 11.4463 107.925
RightShoulder  14.2271 37.3036 28.1744
RightArm  -35.7982 33.2923 8.28513
RightForeArm  -17.8928 -5.56202 9.74884
RightHand  0.609648 -2.68532 26.9472
LeftUpLeg  -7.35099 7.02355 2.48846
LeftLeg  8.15915 -6.79174 -3.71176
LeftFoot  -0.818485 -0.0553156 0.654515
LeftToes  -4.9116e-011 5.71383e-011 -3.31847e-011
395
root  31.1085 40.1594 7.21685 -177.787 -57.6405 179.753
RightUpLeg  -5.94882 -10.2801 -9.3423
RightLeg  -1.01646 -19.3529 3.16088
RightFoot  5.30995 -1.06895 7.54317
RightToes  2.91037e-010 0 -3.6325e-017
Spine  7.42867 4.59573 4.52463
Spine1  0.668073 7.28703 -11.4396
HEad  6.61487 -0.334089 -0.367624
LeftShoulder1  2.08767 -3.8964 -21.8744
LeftArm  22.5609 -54.4798 -41.6177
LeftForeArm  -82.4128 -25.9738 -7.7685
LeftHand  8.98764 12.2597 104.535
RightShoulder  14.1315 38.0169 27.2936
RightArm  -37.0855 33.9146 7.95388
RightForeArm  -18.1408 -6.09712 9.18555
RightHand  0.541696 -2.94065 26.7052
LeftUpLeg  -6.93925 6.9121 2.9156
LeftLeg  6.89239 -7.47041 -3.42398
LeftFoot  -0.509053 0.0553356 -0.551371
LeftToes  -4.9116e-011 5.71383e-011 -3.31847e-011
396
root  31.244 40.2345 6.48995 -176.668 -57.987 178.937
RightUpLeg  -5.66121 -9.39506 -8.31499
RightLeg  -1.21325 -20.9599 2.81034
RightFoot  4.86092 -0.931145 6.76811
RightToes  2.91037e-010 0 -3.6325e-017
Spine  7.56069 4.76327 5.87744
Spine1  0.942833 7.71529 -12.1883
HEad  5.77557 -0.8837 -0.427646
LeftShoulder1  2.08672 -4.09803 -21.0657
LeftArm  20.6417 -56.2034 -41.6594
LeftForeArm  -81.9012 -23.8707 -8.78281
LeftHand  11.2204 15.385 96.0145
RightShoulder  13.7785 38.3934 26.0977
RightArm  -38.2056 34.6116 7.68899
RightForeArm  -18.2602 -6.43187 8.72329
RightHand  0.57165 -2.79389 26.4552
LeftUpLeg  -5.95246 6.77007 3.53573
LeftLeg  4.74911 -8.08557 -2.96772
LeftFoot  0.0257946 0.253223 -2.54653
LeftToes  -4.9116e-011 5.71383e-011 -3.31847e-011
397
root  31.3866 40.2723 5.75128 -176.503 -58.2506 179.28
RightUpLeg  -5.92105 -8.80101 -7.08459
RightLeg  -0.845436 -21.7575 2.85082
RightFoot  4.57973 -0.706732 5.27422
RightToes  2.91037e-010 0 -3.6325e-017
Spine  7.81658 4.79439 7.29335
Spine1  0.823293 7.85385 -12.3438
HEad  5.14945 -1.16564 -1.15885
LeftShoulder1  2.08375 -4.21046 -20.5979
LeftArm  14.4329 -56.7272 -41.2936
LeftForeArm  -75.2414 -20.805 -11.1049
LeftHand  12.6295 18.7936 85.9246
RightShoulder  13.5058 39.0153 24.9104
RightArm  -38.8884 34.996 7.62203
RightForeArm  -19.0059 -6.85261 8.40146
RightHand  0.692064 -2.31686 26.6552
LeftUpLeg  -5.7575 6.77503 4.60537
LeftLeg  4.06074 -8.55007 -2.32438
LeftFoot  0.0862764 0.407387 -4.07703
LeftToes  -4.9116e-011 5.71383e-011 -3.31847e-011
398
root  31.5212 40.242 5.03289 -177.019 -58.2491 -179.485
RightUpLeg  -6.71815 -8.41119 -5.63606
RightLeg  0.792976 -22.0699 2.8022
RightFoot  3.21746 -0.719259 5.79782
RightToes  2.91037e-010 0 -3.6325e-017
Spine  8.0518 4.81604 8.97577
Spine1  0.348068 7.87737 -12.1474
HEad  4.93143 -1.13724 -2.11878
LeftShoulder1  2.07854 -4.19345 -20.5893
LeftArm  -4.13476 -55.7301 -39.845
LeftForeArm  -56.3125 -12.6596 -15.5756
LeftHand  12.892 22.1437 74.3414
RightShoulder  13.374 39.4925 24.205
RightArm  -39.6653 35.0127 7.80996
RightForeArm  -19.6609 -6.77297 8.02104
RightHand  0.877953 -1.57491 26.827
LeftUpLeg  -6.57243 7.10593 6.07345
LeftLeg  5.30546 -8.79748 -1.8905
LeftFoot  -0.735163 0.51925 -5.54517
LeftToes  -4.9116e-011 5.71383e-011 -3.31847e-011
399
root  31.643 40.1698 4.30506 -177.552 -58.2761 -178.676
RightUpLeg  -6.82252 -8.01191 -4.44843
RightLeg  1.84133 -21.7673 2.85233
RightFoot  1.49318 -0.644923 5.81917
RightToes  2.91037e-010 0 -3.6325e-017
Spine  8.49901 4.55202 10.1728
Spine1  -0.431343 7.5588 -11.8978
HEad  5.51034 -1.07173 -2.11142
LeftShoulder1  2.05164 -3.98308 -21.0148
LeftArm  -20.3394 -53.1917 -37.6487
LeftForeArm  -5.78224 -5.03403 -14.8963
LeftHand  0.318707 2.9551 -16.4209
RightShoulder  13.8668 39.7997 25.1379
RightArm  -40.9771 35.1815 7.98823
RightForeArm  -19.2801 -6.6422 7.36306
RightHand  1.03505 -0.67383 25.3516
LeftUpLeg  -7.59713 7.97383 7.37009
LeftLeg  7.80988 -8.49475 -1.83181
LeftFoot  -1.55461 0.551529 -6.3302
LeftToes  -4.9116e-011 5.71383e-011 -3.31847e-011
400
root  31.7448 40.0738 3.60814 -178.313 -58.3302 -178.095
RightUpLeg  -6.93981 -7.68705 -3.24733
RightLeg  3.80838 -21.8673 2.34091
RightFoot  -0.0355613 -0.431355 4.35236
RightToes  2.91037e-010 0 -3.6325e-017
Spine  8.81772 4.19298 10.664
Spine1  -0.94833 6.94642 -10.5871
HEad  6.79515 -0.949182 -1.79182
LeftShoulder1  2.03004 -3.64371 -22.0758
LeftArm  -19.2523 -49.6328 -37.0448
LeftForeArm  -9.41187 -7.84793 -14.1524
LeftHand  0.405472 2.57729 -17.6704
RightShoulder  14.2598 40.0952 25.8277
RightArm  -41.0036 34.9805 9.30844
RightForeArm  -20.6547 -5.88383 7.30574
RightHand  0.722089 -1.88508 24.2663
LeftUpLeg  -8.96006 8.75872 8.49322
LeftLeg  11.7658 -7.42664 -1.68218
LeftFoot  -2.33395 0.651112 -8.08054
LeftToes  -4.9116e-011 5.71383e-011 -3.31847e-011
401
root  31.8028 39.9607 2.91569 -179.176 -57.837 -177.526
RightUpLeg  -6.86147 -7.34173 -2.05908
RightLeg  5.6752 -22.1547 1.77893
RightFoot  -2.00923 -0.382274 4.51245
RightToes  2.91037e-010 0 -3.6325e-017
Spine  8.67317 4.04481 12.0723
Spine1  -0.813299 6.95033 -10.8041
HEad  8.30362 -1.84283 -0.786104
LeftShoulder1  2.05756 -3.4816 -23.1893
LeftArm  -10.933 -45.5073 -37.018
LeftForeArm  -14.5174 -12.8318 -12.6245
LeftHand  0.577111 1.5799 -18.0047
RightShoulder  14.6587 39.5009 27.2715
RightArm  -39.1071 34.2851 11.1731
RightForeArm  -17.3971 -4.61021 7.97456
RightHand  0.673638 -1.49978 20.3892
LeftUpLeg  -10.7026 8.6837 9.72785
LeftLeg  16.8575 -4.84052 -1.33115
LeftFoot  -2.47575 0.807529 -10.2064
LeftToes  -4.9116e-011 5.71383e-011 -3.31847e-011
402
root  31.8048 39.8639 2.26534 -179.675 -57.2488 -177.499
RightUpLeg  -6.64233 -7.34609 -1.25284
RightLeg  7.50956 -21.4611 1.32082
RightFoot  -3.79621 -0.287698 3.96842
RightToes  2.91037e-010 0 -3.6325e-017
Spine  8.51812 3.83508 12.8583
Spine1  -0.606258 6.82481 -10.7503
HEad  9.54323 -2.89386 -0.0925649
LeftShoulder1  2.07742 -3.20742 -24.7631
LeftArm  5.38262 -40.2009 -36.6496
LeftForeArm  -25.7761 -20.2 -8.30668
LeftHand  0.593703 1.24075 -16.9243
RightShoulder  15.1764 38.1719 29.705
RightArm  -34.4684 33.0413 13.3449
RightForeArm  -11.3187 -2.52546 9.66568
RightHand  0.612023 -0.416421 14.3695
LeftUpLeg  -12.8313 6.91799 10.5365
LeftLeg  22.6353 -0.422698 0.129904
LeftFoot  -1.08744 1.06745 -11.7936
LeftToes  -4.9116e-011 5.71383e-011 -3.31847e-011
403
root  31.7587 39.733 1.68291 179.959 -56.5645 -177.626
RightUpLeg  -6.57886 -7.51067 -0.699186
RightLeg  9.74018 -20.7805 0.72951
RightFoot  -5.84359 -0.240038 4.1686
RightToes  2.91037e-010 0 -3.6325e-017
Spine  8.65191 3.60307 13.3764
Spine1  -0.746354 6.57736 -10.2695
HEad  10.5872 -4.33592 0.331019
LeftShoulder1  2.09056 -2.82957 -26.897
LeftArm  11.9733 -34.2546 -35.1688
LeftForeArm  -25.3298 -25.2295 -6.57738
LeftHand  0.611407 0.890347 -15.9957
RightShoulder  15.7598 36.13 33.1579
RightArm  -28.3702 31.1713 15.1632
RightForeArm  -5.10362 -0.240349 11.6879
RightHand  0.399736 -0.738515 10.1413
LeftUpLeg  -15.4212 4.88108 10.8485
LeftLeg  28.9405 3.38355 2.35635
LeftFoot  1.7343 1.25648 -11.0304
LeftToes  -4.9116e-011 5.71383e-011 -3.31847e-011
404
root  31.6517 39.573 1.12519 179.337 -55.6764 -177.303
RightUpLeg  -6.57589 -7.43522 0.120827
RightLeg  11.921 -19.769 0.107272
RightFoot  -7.82829 -0.183998 4.26214
RightToes  2.91037e-010 0 -3.6325e-017
Spine  8.25547 3.46387 14.0237
Spine1  -0.423931 6.39299 -9.56406
HEad  11.3005 -5.74754 0.377704
LeftShoulder1  2.05253 -2.42598 -28.5453
LeftArm  14.6373 -27.8397 -33.97
LeftForeArm  -19.1114 -28.3467 -7.07157
LeftHand  0.553732 0.658591 -13.7652
RightShoulder  16.1907 33.6653 36.996
RightArm  -21.1597 28.3317 16.523
RightForeArm  3.17997 2.07478 13.4115
RightHand  0.325427 0.274562 6.66738
LeftUpLeg  -18.0057 4.16669 11.1234
LeftLeg  34.8526 4.74107 3.88627
LeftFoot  4.82603 1.03338 -7.47593
LeftToes  -4.9116e-011 5.71383e-011 -3.31847e-011
405
root  31.5013 39.4971 0.588478 179.249 -54.8489 -177.626
RightUpLeg  -5.96037 -7.23161 0.586053
RightLeg  12.9114 -18.8396 -0.381896
RightFoot  -9.33423 -0.144202 4.60882
RightToes  2.91037e-010 0 -3.6325e-017
Spine  8.0542 3.22549 14.0301
Spine1  -0.319136 6.07323 -8.93699
HEad  11.899 -6.9093 0.120502
LeftShoulder1  1.98869 -2.0161 -29.9823
LeftArm  19.7278 -21.3859 -32.8428
LeftForeArm  -15.7243 -29.8041 -7.28551
LeftHand  0.52888 0.000548888 -11.4535
RightShoulder  16.2665 30.7572 40.8676
RightArm  -10.309 24.6784 17.5913
RightForeArm  8.73911 4.80856 14.3118
RightHand  0.26513 1.84397 4.10047
LeftUpLeg  -20.2297 3.49728 10.4777
LeftLeg  39.8576 3.16122 3.18958
LeftFoot  3.50682 1.04096 -8.14346
LeftToes  -4.9116e-011 5.71383e-011 -3.31847e-011
406
root  31.3147 39.4585 0.0560937 179.397 -53.7239 -178.008
RightUpLeg  -5.19018 -6.94276 0.946513
RightLeg  13.1722 -17.7442 -0.604644
RightFoot  -10.3087 -0.112408 4.70158
RightToes  2.91037e-010 0 -3.6325e-017
Spine  7.64702 3.15453 13.8649
Spine1  -0.036564 5.86956 -8.30585
HEad  12.2369 -7.78669 -0.33195
LeftShoulder1  1.94123 -1.64465 -31.671
LeftArm  26.1125 -15.5771 -31.6909
LeftForeArm  -14.1909 -29.341 -7.09461
LeftHand  0.490832 -0.516854 -9.63612
RightShoulder  15.8697 27.6393 44.2217
RightArm  1.26145 20.5978 18.114
RightForeArm  11.855 6.54653 14.7534
RightHand  0.174536 2.98759 2.19422
LeftUpLeg  -22.1895 3.42194 9.22369
LeftLeg  43.1706 1.77 2.15841
LeftFoot  1.76844 0.963487 -8.46861
LeftToes  -4.9116e-011 5.71383e-011 -3.31847e-011
407
root  31.1173 39.4792 -0.476872 179.961 -52.2448 -178.863
RightUpLeg  -4.14585 -6.90996 0.95683
RightLeg  12.6908 -16.523 -0.402739
RightFoot  -11.0483 -0.0864553 4.47601
RightToes  2.91037e-010 0 -3.6325e-017
Spine  7.80435 3.13103 13.3575
Spine1  -0.54308 5.72723 -8.21564
HEad  12.5745 -8.17985 -0.831395
LeftShoulder1  1.87653 -1.38037 -32.3843
LeftArm  33.7479 -9.65222 -31.6322
LeftForeArm  -14.9273 -27.298 -6.62301
LeftHand  0.431964 -1.04978 -7.71589
RightShoulder  15.1925 24.7657 46.8388
RightArm  10.5304 15.7451 18.2979
RightForeArm  12.2493 6.36263 15.6285
RightHand  0.0745832 3.22186 0.769263
LeftUpLeg  -23.5483 4.10725 7.29407
LeftLeg  44.2571 1.43483 1.88446
LeftFoot  0.257616 0.814569 -8.02782
LeftToes  -4.9116e-011 5.71383e-011 -3.31847e-011
408
root  30.9091 39.5476 -1.01816 -179.193 -50.4638 -179.913
RightUpLeg  -2.95761 -6.79674 0.727323
RightLeg  11.6043 -14.6564 -0.00357244
RightFoot  -11.455 -0.0722963 4.21897
RightToes  2.91037e-010 0 -3.6325e-017
Spine  7.55401 3.29901 12.6487
Spine1  -0.548059 5.79869 -8.4266
HEad  12.9225 -8.62692 -1.04279
LeftShoulder1  1.83987 -1.24609 -32.6964
LeftArm  43.994 -4.5013 -32.216
LeftForeArm  -18.6631 -23.8627 -5.99574
LeftHand  0.428579 -1.5869 -7.01001
RightShoulder  14.3294 22.3014 48.4922
RightArm  13.9335 10.9365 18.2543
RightForeArm  12.2332 2.43526 17.3609
RightHand  0.257186 3.46003 3.12585
LeftUpLeg  -24.3252 5.03119 4.98501
LeftLeg  42.9718 1.98229 2.35856
LeftFoot  -0.948672 0.726239 -7.91584
LeftToes  -4.9116e-011 5.71383e-011 -3.31847e-011
